<?xml version="1.0" standalone="no"?>
<!-- created Tirith™ Works (tirithcz) 2019 / tirith@email.cz / tirith.cz -->
<!-- Colors: secondlife_green( #79CEB8 ) -->
<!--         secondlife_blue(  #73ACB6 ) -->
<!-- Used font: Segoe UI -->
<svg xmlns="http://www.w3.org/2000/svg" xmlns:xlink="http://www.w3.org/1999/xlink" style="isolation:isolate" viewBox="0 0 630 378" width="630" height="378">
    <defs>
        <clipPath id="_clipPath_OjwHeXedprDy1SGYyGUF2BNrD1xuAxds">
            <rect width="630" height="378" />
        </clipPath>
    </defs>
    <g clip-path="url(#_clipPath_OjwHeXedprDy1SGYyGUF2BNrD1xuAxds)">
        <rect width="630" height="378" style="fill:rgb(0,0,0)" fill-opacity="0.0" />
        <path d=" M 228.1 346 L 216.7 346 L 170.7 378 L 170.7 346 L 170 346 L 170 190 L 346 100 L 170 2 L 0 100 L 0 272 L 121 346 L 10 346 C 4.5 346 0 341.5 0 336 L 0 10 C 0 4.5 4.5 0 10 0 L 620 0 C 625.5 0 630 4.5 630 10 L 630 336 C 630 341.5 625.5 346 620 346 L 616.7 346 L 616.7 316.7 L 616.7 316.7 L 556.6 316.7 L 556.6 183.9 L 520 183.9 L 520 346 L 472.5 346 Q 482.4 343.5 490.1 338.5 L 490.1 338.5 L 490.1 338.5 Q 498.9 332.8 504.1 323.5 L 504.1 323.5 L 504.1 323.5 Q 509.2 314.3 509.2 300.7 L 509.2 300.7 L 509.2 300.7 Q 509.2 290.8 506.3 283.4 L 506.3 283.4 L 506.3 283.4 Q 503.3 276 497.8 270.2 L 497.8 270.2 L 497.8 270.2 Q 492.2 264.4 484.5 259.9 L 484.5 259.9 L 484.5 259.9 Q 476.7 255.3 467 251.2 L 467 251.2 L 467 251.2 Q 459.8 248.3 454.2 245.5 L 454.2 245.5 L 454.2 245.5 Q 448.5 242.7 444.6 239.8 L 444.6 239.8 L 444.6 239.8 Q 440.6 236.9 438.4 233.7 L 438.4 233.7 L 438.4 233.7 Q 436.3 230.5 436.3 226.4 L 436.3 226.4 L 436.3 226.4 Q 436.3 222.6 438.2 219.6 L 438.2 219.6 L 438.2 219.6 Q 440.1 216.6 443.6 214.5 L 443.6 214.5 L 443.6 214.5 Q 447.2 212.3 452.3 211.2 L 452.3 211.2 L 452.3 211.2 Q 457.4 210 463.6 210 L 463.6 210 L 463.6 210 Q 468.1 210 473.2 210.6 L 473.2 210.6 L 473.2 210.6 Q 478.2 211.3 483.3 212.7 L 483.3 212.7 L 483.3 212.7 Q 488.4 214.2 493.2 216.3 L 493.2 216.3 L 493.2 216.3 Q 498 218.5 502.1 221.3 L 502.1 221.3 L 502.1 187.4 L 502.1 187.4 Q 493.8 184.2 484 182.7 L 484 182.7 L 484 182.7 Q 474.2 181.2 461.5 181.2 L 461.5 181.2 L 461.5 181.2 Q 448.6 181.2 437.1 184 L 437.1 184 L 437.1 184 Q 425.5 186.7 416.7 192.6 L 416.7 192.6 L 416.7 192.6 Q 408 198.5 402.9 207.6 L 402.9 207.6 L 402.9 207.6 Q 397.8 216.8 397.8 229.4 L 397.8 229.4 L 397.8 229.4 Q 397.8 245.6 407.1 257.1 L 407.1 257.1 L 407.1 257.1 Q 416.5 268.5 435.5 276.5 L 435.5 276.5 L 435.5 276.5 Q 443 279.5 449.4 282.5 L 449.4 282.5 L 449.4 282.5 Q 455.9 285.4 460.6 288.6 L 460.6 288.6 L 460.6 288.6 Q 465.3 291.8 468 295.5 L 468 295.5 L 468 295.5 Q 470.7 299.2 470.7 304 L 470.7 304 L 470.7 304 Q 470.7 307.5 469 310.5 L 469 310.5 L 469 310.5 Q 467.3 313.5 463.9 315.7 L 463.9 315.7 L 463.9 315.7 Q 460.4 317.9 455.3 319.2 L 455.3 319.2 L 455.3 319.2 Q 450.1 320.4 443.2 320.4 L 443.2 320.4 L 443.2 320.4 Q 431.4 320.4 419.9 316.3 L 419.9 316.3 L 419.9 316.3 Q 408.3 312.1 398.4 303.9 L 398.4 303.9 L 398.4 340.1 L 398.4 340.1 L 398.4 340.1 Q 405.6 343.8 415 346 L 390.1 346 L 390.1 275.3 L 390.1 275.3 L 390.1 275.3 Q 390.1 227.5 351.6 227.5 L 351.6 227.5 L 351.6 227.5 Q 327.1 227.5 314.3 248.7 L 314.3 248.7 L 313.9 248.7 L 313.9 230.4 L 278.1 230.4 L 278.1 346 L 263.9 346 L 263.9 230.4 L 263.9 230.4 L 228.1 230.4 L 228.1 346 Z  M 313.9 346 L 354.4 346 L 354.4 281.9 L 354.4 281.9 Q 354.4 254.9 335.2 254.9 L 335.2 254.9 L 335.2 254.9 Q 325.9 254.9 319.9 262.1 L 319.9 262.1 L 319.9 262.1 Q 313.9 269.2 313.9 280.2 L 313.9 280.2 L 313.9 346 Z  M 246.3 212 L 246.3 212 L 246.3 212 Q 237.2 212 231.4 206.6 L 231.4 206.6 L 231.4 206.6 Q 225.6 201.2 225.6 193.4 L 225.6 193.4 L 225.6 193.4 Q 225.6 185.4 231.4 180.3 L 231.4 180.3 L 231.4 180.3 Q 237.2 175.2 246.3 175.2 L 246.3 175.2 L 246.3 175.2 Q 255.4 175.2 261.2 180.3 L 261.2 180.3 L 261.2 180.3 Q 266.9 185.4 266.9 193.4 L 266.9 193.4 L 266.9 193.4 Q 266.9 201.6 261.2 206.8 L 261.2 206.8 L 261.2 206.8 Q 255.4 212 246.3 212 L 246.3 212 Z " fill-rule="evenodd" id="Compound Shape" fill="rgb(121,206,184)" />
    </g>
</svg>